<svg width="46" height="46" viewBox="0 0 46 46" fill="none" xmlns="http://www.w3.org/2000/svg">
<g filter="url(#filter0_dd_1_1547)">
<rect x="3" y="2" width="40" height="40" rx="6" fill="white"/>
<g clip-path="url(#clip0_1_1547)">
<path d="M35.4074 10H10.6032C9.72454 10 9.00177 10.7228 9.00177 11.6014V31.7586C9.00177 32.6372 9.72454 33.36 10.6032 33.36H35.4074C36.2861 33.36 37.0089 32.6372 37.0089 31.7586V11.6014C37.0089 10.7228 36.2861 10 35.4074 10ZM33.8912 11.5392C34.4518 11.5392 34.9129 12.0003 34.9129 12.561C34.9129 13.1217 34.4518 13.5828 33.8912 13.5828C33.3305 13.5828 32.8694 13.1217 32.8694 12.561C32.8694 12.0003 33.3305 11.5392 33.8912 11.5392ZM30.2462 11.5392C30.8068 11.5392 31.2679 12.0003 31.2679 12.561C31.2679 13.1217 30.8068 13.5828 30.2462 13.5828C29.6855 13.5828 29.2244 13.1217 29.2244 12.561C29.2244 12.0003 29.6855 11.5392 30.2462 11.5392ZM26.6012 11.5392C27.1619 11.5392 27.623 12.0003 27.623 12.561C27.623 13.1217 27.1619 13.5828 26.6012 13.5828C26.0405 13.5828 25.5794 13.1217 25.5794 12.561C25.5794 12.0003 26.0405 11.5392 26.6012 11.5392ZM34.9522 31.287H11.0453V14.9615H34.9522V31.287Z" fill="#091915"/>
<path d="M18.4985 29.5513C18.6628 29.2786 18.9116 29.067 19.2072 28.9487C19.5028 28.8305 19.8289 28.8121 20.136 28.8963C20.2767 28.9451 20.4258 28.9652 20.5744 28.9552C20.723 28.9452 20.8681 28.9054 21.0011 28.8382C21.134 28.7709 21.252 28.6777 21.3481 28.5639C21.4443 28.4501 21.5165 28.3181 21.5605 28.1758C21.6674 27.8887 21.6589 27.5714 21.5367 27.2905C21.4146 27.0096 21.1884 26.787 20.9056 26.6693C20.6276 26.5426 20.3997 26.3272 20.2574 26.057C20.1151 25.7867 20.0667 25.4768 20.1196 25.176C20.1687 24.8622 20.3264 24.5755 20.5652 24.3661C20.804 24.1566 21.1087 24.0376 21.4263 24.0297C21.7377 24.0232 22.0342 23.8952 22.2526 23.6731C22.471 23.451 22.594 23.1524 22.5954 22.841C22.594 22.5261 22.4682 22.2246 22.2456 22.002C22.023 21.7793 21.7215 21.6536 21.4066 21.6522H21.387C21.0681 21.6427 20.7618 21.5256 20.5179 21.3198C20.2741 21.1141 20.1072 20.8318 20.0443 20.519C20.0086 20.3297 20.0086 20.1353 20.0443 19.9459C20.0777 19.7367 20.1604 19.5385 20.2857 19.3676C20.411 19.1967 20.5752 19.0582 20.7647 18.9634C21.0347 18.8173 21.2381 18.5728 21.3326 18.2807C21.4272 17.9886 21.4056 17.6714 21.2724 17.3948C21.1714 17.1022 20.9584 16.8617 20.6803 16.726C20.4022 16.5903 20.0815 16.5705 19.7888 16.671C19.4928 16.7895 19.1643 16.7988 18.862 16.6972C18.6022 16.5803 18.3767 16.3988 18.207 16.1699C18.0786 15.9987 17.9877 15.8022 17.9403 15.5934C17.8929 15.3846 17.89 15.1682 17.9319 14.9582H12.4759C15.0074 16.3173 17.4178 19.0486 17.4767 22.6739C17.5422 26.6038 15.4626 29.7772 12.4039 31.2837H18.5673C18.3622 31.045 18.2438 30.7439 18.2313 30.4295C18.2188 30.115 18.313 29.8055 18.4985 29.5513Z" fill="#091915"/>
<path d="M26.2044 16.5335C26.4506 16.7368 26.6195 17.0186 26.6827 17.3316C26.7459 17.6446 26.6996 17.9698 26.5515 18.2528C26.4301 18.5476 26.2155 18.7946 25.9405 18.956C25.6655 19.1174 25.3453 19.1845 25.0287 19.1468C24.8813 19.1187 24.7297 19.1207 24.5831 19.1526C24.4365 19.1846 24.2978 19.2458 24.1755 19.3327C24.0531 19.4196 23.9496 19.5303 23.8711 19.6582C23.7926 19.7861 23.7408 19.9285 23.7187 20.0769C23.6555 20.3752 23.7098 20.6863 23.8702 20.9456C24.0306 21.2049 24.2849 21.3923 24.58 21.4688C24.8744 21.551 25.133 21.7289 25.3151 21.9744C25.4971 22.2199 25.5922 22.519 25.5854 22.8246C25.581 23.1343 25.4707 23.4331 25.2729 23.6714C25.0751 23.9097 24.8017 24.0732 24.4981 24.1345C24.2219 24.1827 23.9715 24.3266 23.7909 24.541C23.6102 24.7554 23.5108 25.0266 23.5101 25.307C23.5116 25.622 23.6374 25.9237 23.8601 26.1464C24.0828 26.3692 24.3845 26.495 24.6996 26.4964C24.767 26.4964 24.8345 26.4909 24.901 26.4794C25.2174 26.4399 25.5379 26.5087 25.8103 26.6746C26.0826 26.8405 26.2908 27.0938 26.4009 27.3931C26.4641 27.5752 26.4929 27.7671 26.486 27.9597C26.4864 28.1729 26.4358 28.3832 26.3384 28.5729C26.2409 28.7626 26.0996 28.9263 25.926 29.0502C25.6787 29.2361 25.5133 29.5106 25.4644 29.816C25.4155 30.1215 25.4871 30.4339 25.664 30.6877C25.8256 30.9393 26.0518 31.1429 26.319 31.2771H33.609C31.2903 30.1277 29.1354 27.9662 28.6082 24.8911C27.8615 20.5321 29.9181 16.7332 33.3732 14.9582H25.9424C25.777 15.2047 25.7121 15.505 25.7608 15.7978C25.8094 16.0906 25.9681 16.3538 26.2044 16.5335Z" fill="#23B781"/>
<path d="M28.3036 31.5162H28.0907C28.1602 31.5365 28.2342 31.5365 28.3036 31.5162Z" fill="#091915"/>
</g>
</g>
<defs>
<filter id="filter0_dd_1_1547" x="0" y="0" width="46" height="46" filterUnits="userSpaceOnUse" color-interpolation-filters="sRGB">
<feFlood flood-opacity="0" result="BackgroundImageFix"/>
<feColorMatrix in="SourceAlpha" type="matrix" values="0 0 0 0 0 0 0 0 0 0 0 0 0 0 0 0 0 0 127 0" result="hardAlpha"/>
<feOffset dy="1"/>
<feGaussianBlur stdDeviation="1"/>
<feComposite in2="hardAlpha" operator="out"/>
<feColorMatrix type="matrix" values="0 0 0 0 0 0 0 0 0 0 0 0 0 0 0 0 0 0 0.06 0"/>
<feBlend mode="normal" in2="BackgroundImageFix" result="effect1_dropShadow_1_1547"/>
<feColorMatrix in="SourceAlpha" type="matrix" values="0 0 0 0 0 0 0 0 0 0 0 0 0 0 0 0 0 0 127 0" result="hardAlpha"/>
<feOffset dy="1"/>
<feGaussianBlur stdDeviation="1.5"/>
<feComposite in2="hardAlpha" operator="out"/>
<feColorMatrix type="matrix" values="0 0 0 0 0 0 0 0 0 0 0 0 0 0 0 0 0 0 0.1 0"/>
<feBlend mode="normal" in2="effect1_dropShadow_1_1547" result="effect2_dropShadow_1_1547"/>
<feBlend mode="normal" in="SourceGraphic" in2="effect2_dropShadow_1_1547" result="shape"/>
</filter>
<clipPath id="clip0_1_1547">
<rect width="28.0096" height="23.36" fill="white" transform="translate(9 10)"/>
</clipPath>
</defs>
</svg>
