<svg width="46" height="46" viewBox="0 0 46 46" fill="none" xmlns="http://www.w3.org/2000/svg">
<g filter="url(#filter0_dd_1_1532)">
<rect x="3" y="2" width="40" height="40" rx="6" fill="white"/>
<g clip-path="url(#clip0_1_1532)">
<path d="M28.5762 25.48C28.2925 25.48 28.0125 25.4662 27.7337 25.4412C27.5238 26.0621 27.2568 26.6621 26.9362 27.2337C28.8343 27.4931 30.7672 27.2352 32.5309 26.4871C34.2945 25.7391 35.8235 24.5287 36.9562 22.9837C36.7685 22.5083 36.5432 22.0485 36.2825 21.6087C35.3894 22.8108 34.2272 23.7871 32.889 24.4593C31.5508 25.1316 30.0738 25.4811 28.5762 25.48Z" fill="black"/>
<path d="M28.36 6C26.4689 5.99957 24.6116 6.50226 22.9789 7.45648C21.3461 8.4107 19.9966 9.7821 19.0687 11.43C18.935 11.6688 18.8087 11.9125 18.6937 12.1613C17.9936 13.6651 17.6535 15.3114 17.7006 16.9696C17.7477 18.6277 18.1806 20.2521 18.965 21.7137C19.09 21.9437 19.2212 22.1663 19.3612 22.385C20.1432 23.6154 21.1689 24.6726 22.3752 25.4913C23.5815 26.3099 24.9428 26.8728 26.375 27.145C26.7459 26.5953 27.0592 26.0089 27.31 25.395C25.8728 25.2042 24.4974 24.6904 23.287 23.8922C22.0767 23.094 21.0627 22.0322 20.3212 20.7863C20.22 20.6175 20.1262 20.445 20.0362 20.27C19.4013 19.0367 19.0411 17.6805 18.9805 16.2948C18.9198 14.909 19.1602 13.5265 19.685 12.2425C19.7762 12.0213 19.8737 11.805 19.98 11.5938C20.5628 10.4274 21.377 9.39188 22.373 8.55042C23.369 7.70896 24.5259 7.07916 25.7733 6.6994C27.0206 6.31965 28.3322 6.1979 29.6281 6.34158C30.9241 6.48526 32.1772 6.89136 33.311 7.53512C34.4449 8.17888 35.4358 9.04681 36.2233 10.086C37.0108 11.1252 37.5784 12.3139 37.8915 13.5796C38.2046 14.8453 38.2567 16.1615 38.0445 17.448C37.8324 18.7345 37.3604 19.9643 36.6575 21.0625C36.941 21.4521 37.1971 21.861 37.4237 22.2862C38.426 20.6711 38.9783 18.8174 39.0234 16.9171C39.0686 15.0168 38.605 13.139 37.6806 11.4781C36.7563 9.81711 35.4047 8.43344 33.766 7.47029C32.1272 6.50714 30.2608 5.99952 28.36 6Z" fill="black"/>
<path opacity="0.7" d="M26.5537 16.65L26.6187 16.7612C26.7162 16.7475 26.8137 16.735 26.91 16.725C26.8325 16.59 26.755 16.455 26.6712 16.3225C25.9246 15.1308 24.9487 14.0991 23.8003 13.2874C22.6519 12.4757 21.3538 11.9 19.9812 11.5938C19.875 11.805 19.7775 12.0212 19.6862 12.2425C21.0847 12.4266 22.4254 12.9171 23.6125 13.6789C24.7996 14.4408 25.8039 15.4553 26.5537 16.65Z" fill="black"/>
<path opacity="0.7" d="M27.04 16.9625C26.9467 16.9725 26.8529 16.9838 26.7588 16.9963C27.8113 18.8395 28.2233 20.9796 27.9301 23.0819C27.637 25.1841 26.6553 27.1299 25.1387 28.6149C23.622 30.0998 21.6559 31.0402 19.5479 31.2889C17.4399 31.5376 15.309 31.0805 13.4884 29.9892C11.6678 28.898 10.2603 27.234 9.48604 25.2577C8.71175 23.2813 8.61439 21.1041 9.20916 19.0665C9.80393 17.029 11.0573 15.246 12.7732 13.9966C14.4891 12.7472 16.5707 12.1017 18.6925 12.1612C18.8088 11.9112 18.935 11.6687 19.0675 11.43C17.5734 11.2286 16.0536 11.3463 14.6082 11.7752C13.1629 12.2042 11.825 12.9347 10.6827 13.9186C9.54035 14.9025 8.61961 16.1174 7.98119 17.4832C7.34277 18.849 7.00117 20.3346 6.97892 21.842C6.95668 23.3495 7.25429 24.8446 7.85213 26.2286C8.44998 27.6126 9.33447 28.8541 10.4473 29.8713C11.56 30.8885 12.8758 31.6582 14.3079 32.1296C15.7399 32.601 17.2556 32.7635 18.755 32.6063C19.3019 32.5507 19.8436 32.4521 20.375 32.3113C21.9307 31.8979 23.3728 31.1379 24.5931 30.0882C25.8134 29.0384 26.7803 27.7261 27.4215 26.2496C28.0626 24.7731 28.3614 23.1707 28.2953 21.5623C28.2292 19.954 27.8001 18.3814 27.04 16.9625Z" fill="black"/>
<path opacity="0.5" d="M19.36 22.385C19.22 22.1662 19.0875 21.9437 18.9637 21.7137C18.0744 23.1428 17.5373 24.7627 17.3967 26.44C17.2561 28.1173 17.516 29.8041 18.155 31.3612C18.6672 31.3758 19.1796 31.349 19.6875 31.2812C19.2891 30.5808 18.9796 29.8333 18.7662 29.0562C18.1532 26.8337 18.3641 24.4644 19.36 22.385Z" fill="black"/>
<path opacity="0.5" d="M38.3138 24.5087C38.1014 23.7369 37.8029 22.9913 37.4238 22.2862C37.1971 21.861 36.941 21.4521 36.6575 21.0625C35.5556 19.5478 34.0746 18.3497 32.3632 17.5884C30.6519 16.827 28.7703 16.5293 26.9075 16.725C26.8113 16.735 26.7138 16.7475 26.6163 16.7612C26.1392 16.825 25.667 16.9202 25.2025 17.0462C23.2017 17.592 21.4049 18.7129 20.035 20.27C20.125 20.445 20.2188 20.6175 20.32 20.7862C21.0848 19.756 22.0489 18.8899 23.155 18.2395C24.2611 17.589 25.4866 17.1675 26.7588 17C26.8529 16.9875 26.9467 16.9762 27.04 16.9662C28.7082 16.7929 30.3928 17.0595 31.9259 17.7395C33.4591 18.4196 34.7874 19.4893 35.7787 20.8423C36.7699 22.1952 37.3895 23.7842 37.5757 25.4511C37.7619 27.1179 37.5083 28.8045 36.8402 30.3428C36.172 31.8812 35.1125 33.2177 33.7672 34.2194C32.422 35.221 30.8378 35.8528 29.1724 36.0519C27.5071 36.251 25.8186 36.0104 24.2751 35.3542C22.7317 34.6979 21.387 33.6488 20.375 32.3112C19.8452 32.4518 19.3052 32.5505 18.76 32.6062C20.0449 34.8661 22.1108 36.5789 24.5696 37.4229C27.0284 38.2668 29.7108 38.1838 32.1126 37.1893C34.5145 36.1948 36.4705 34.3575 37.6131 32.0224C38.7557 29.6874 39.0062 27.0155 38.3175 24.5087H38.3138Z" fill="black"/>
</g>
</g>
<defs>
<filter id="filter0_dd_1_1532" x="0" y="0" width="46" height="46" filterUnits="userSpaceOnUse" color-interpolation-filters="sRGB">
<feFlood flood-opacity="0" result="BackgroundImageFix"/>
<feColorMatrix in="SourceAlpha" type="matrix" values="0 0 0 0 0 0 0 0 0 0 0 0 0 0 0 0 0 0 127 0" result="hardAlpha"/>
<feOffset dy="1"/>
<feGaussianBlur stdDeviation="1"/>
<feComposite in2="hardAlpha" operator="out"/>
<feColorMatrix type="matrix" values="0 0 0 0 0 0 0 0 0 0 0 0 0 0 0 0 0 0 0.06 0"/>
<feBlend mode="normal" in2="BackgroundImageFix" result="effect1_dropShadow_1_1532"/>
<feColorMatrix in="SourceAlpha" type="matrix" values="0 0 0 0 0 0 0 0 0 0 0 0 0 0 0 0 0 0 127 0" result="hardAlpha"/>
<feOffset dy="1"/>
<feGaussianBlur stdDeviation="1.5"/>
<feComposite in2="hardAlpha" operator="out"/>
<feColorMatrix type="matrix" values="0 0 0 0 0 0 0 0 0 0 0 0 0 0 0 0 0 0 0.1 0"/>
<feBlend mode="normal" in2="effect1_dropShadow_1_1532" result="effect2_dropShadow_1_1532"/>
<feBlend mode="normal" in="SourceGraphic" in2="effect2_dropShadow_1_1532" result="shape"/>
</filter>
<clipPath id="clip0_1_1532">
<rect width="32" height="32" fill="white" transform="translate(7 6)"/>
</clipPath>
</defs>
</svg>
