<svg width="46" height="46" viewBox="0 0 46 46" fill="none" xmlns="http://www.w3.org/2000/svg">
<g filter="url(#filter0_dd_1_1481)">
<g clip-path="url(#clip0_1_1481)">
<rect x="3" y="2" width="40" height="40" rx="6" fill="white"/>
<g clip-path="url(#clip1_1_1481)">
<path fill-rule="evenodd" clip-rule="evenodd" d="M5.20771 42C3.98808 42 3 41.0113 3 39.7922V4.20768C3 2.98821 3.98823 2 5.20771 2H40.7924C42.0116 2 43 2.98821 43 4.20768V39.7922C43 41.0115 42.0114 42 40.7924 42H30.5994V26.5098H35.7988L36.5773 20.473H30.5994V16.6189C30.5994 14.8711 31.0848 13.68 33.5911 13.68L36.7877 13.6786V8.27924C36.2349 8.20567 34.3373 8.04131 32.1296 8.04131C27.5207 8.04131 24.3653 10.8546 24.3653 16.021V20.473H19.1526V26.5098H24.3653V42H5.20771Z" fill="#1C75EB"/>
</g>
</g>
</g>
<defs>
<filter id="filter0_dd_1_1481" x="0" y="0" width="46" height="46" filterUnits="userSpaceOnUse" color-interpolation-filters="sRGB">
<feFlood flood-opacity="0" result="BackgroundImageFix"/>
<feColorMatrix in="SourceAlpha" type="matrix" values="0 0 0 0 0 0 0 0 0 0 0 0 0 0 0 0 0 0 127 0" result="hardAlpha"/>
<feOffset dy="1"/>
<feGaussianBlur stdDeviation="1"/>
<feComposite in2="hardAlpha" operator="out"/>
<feColorMatrix type="matrix" values="0 0 0 0 0 0 0 0 0 0 0 0 0 0 0 0 0 0 0.06 0"/>
<feBlend mode="normal" in2="BackgroundImageFix" result="effect1_dropShadow_1_1481"/>
<feColorMatrix in="SourceAlpha" type="matrix" values="0 0 0 0 0 0 0 0 0 0 0 0 0 0 0 0 0 0 127 0" result="hardAlpha"/>
<feOffset dy="1"/>
<feGaussianBlur stdDeviation="1.5"/>
<feComposite in2="hardAlpha" operator="out"/>
<feColorMatrix type="matrix" values="0 0 0 0 0 0 0 0 0 0 0 0 0 0 0 0 0 0 0.1 0"/>
<feBlend mode="normal" in2="effect1_dropShadow_1_1481" result="effect2_dropShadow_1_1481"/>
<feBlend mode="normal" in="SourceGraphic" in2="effect2_dropShadow_1_1481" result="shape"/>
</filter>
<clipPath id="clip0_1_1481">
<rect x="3" y="2" width="40" height="40" rx="6" fill="white"/>
</clipPath>
<clipPath id="clip1_1_1481">
<rect width="40" height="40" fill="white" transform="translate(3 2)"/>
</clipPath>
</defs>
</svg>
