<svg width="46" height="46" viewBox="0 0 46 46" fill="none" xmlns="http://www.w3.org/2000/svg">
<g filter="url(#filter0_dd_1_1492)">
<rect x="3" y="2" width="40" height="40" rx="6" fill="white"/>
<g clip-path="url(#clip0_1_1492)">
<path fill-rule="evenodd" clip-rule="evenodd" d="M23.1412 19.6V24.4C23.1412 24.4 27.8 24.4 29.6353 24.4C28.6471 27.5059 27.0941 29.2 23.1412 29.2C19.1882 29.2 16.0824 25.9529 16.0824 22C16.0824 18.0471 19.1882 14.8 23.1412 14.8C25.2588 14.8 26.5294 15.5059 27.8 16.4941C28.7882 15.5059 28.6471 15.3647 31.1882 12.9647C29.0706 11.1294 26.2471 10 23.1412 10C16.5059 10 11.1412 15.3647 11.1412 22C11.1412 28.6353 16.5059 34 23.1412 34C33.0235 34 35.4235 25.3882 34.7176 19.6H23.1412Z" fill="#091915"/>
</g>
</g>
<defs>
<filter id="filter0_dd_1_1492" x="0" y="0" width="46" height="46" filterUnits="userSpaceOnUse" color-interpolation-filters="sRGB">
<feFlood flood-opacity="0" result="BackgroundImageFix"/>
<feColorMatrix in="SourceAlpha" type="matrix" values="0 0 0 0 0 0 0 0 0 0 0 0 0 0 0 0 0 0 127 0" result="hardAlpha"/>
<feOffset dy="1"/>
<feGaussianBlur stdDeviation="1"/>
<feComposite in2="hardAlpha" operator="out"/>
<feColorMatrix type="matrix" values="0 0 0 0 0 0 0 0 0 0 0 0 0 0 0 0 0 0 0.06 0"/>
<feBlend mode="normal" in2="BackgroundImageFix" result="effect1_dropShadow_1_1492"/>
<feColorMatrix in="SourceAlpha" type="matrix" values="0 0 0 0 0 0 0 0 0 0 0 0 0 0 0 0 0 0 127 0" result="hardAlpha"/>
<feOffset dy="1"/>
<feGaussianBlur stdDeviation="1.5"/>
<feComposite in2="hardAlpha" operator="out"/>
<feColorMatrix type="matrix" values="0 0 0 0 0 0 0 0 0 0 0 0 0 0 0 0 0 0 0.1 0"/>
<feBlend mode="normal" in2="effect1_dropShadow_1_1492" result="effect2_dropShadow_1_1492"/>
<feBlend mode="normal" in="SourceGraphic" in2="effect2_dropShadow_1_1492" result="shape"/>
</filter>
<clipPath id="clip0_1_1492">
<rect width="24" height="24" fill="white" transform="translate(11 10)"/>
</clipPath>
</defs>
</svg>
